<svg version="1.1" id="Layer_1" xmlns="http://www.w3.org/2000/svg" xmlns:xlink="http://www.w3.org/1999/xlink" x="0" y="0" width="50" height="36" xml:space="preserve"><style>.st1{clip-path:url(#SVGID_2_);fill:#fff}</style><defs><path id="SVGID_1_" d="M0 0h50v36H0z"/></defs><clipPath id="SVGID_2_"><use xlink:href="#SVGID_1_" overflow="visible"/></clipPath><path class="st1" d="M25.8 23.6l11-8.9c1.2-.7 1.5-2.3.8-3.4-.7-1.2-2.3-1.5-3.4-.8l-11 8.9c-1.2.7-1.5 2.3-.8 3.4.7 1.2 2.3 1.6 3.4.8"/><path d="M25.8 19.4l-11-8.9c-1.2-.7-2.7-.4-3.4.8-.7 1.2-.4 2.7.8 3.4l11 8.9c1.2.7 2.7.4 3.4-.8s.4-2.7-.8-3.4" clip-path="url(#SVGID_2_)" fill="#0fbc8d"/><path class="st1" d="M41.8 0H8.2C3.7 0 0 3.7 0 8.2v19.6C0 32.3 3.7 36 8.2 36h33.6c4.5 0 8.2-3.7 8.2-8.2V8.2C50 3.7 46.3 0 41.8 0M45 27.8c0 1.8-1.4 3.2-3.2 3.2H8.2C6.4 31 5 29.6 5 27.8V8.2C5 6.4 6.4 5 8.2 5h33.6C43.6 5 45 6.4 45 8.2v19.6z"/></svg>