<svg xmlns="http://www.w3.org/2000/svg" xmlns:xlink="http://www.w3.org/1999/xlink" width="76" height="53.9"><defs><path id="a" d="M0 0h76v53.9H0z"/></defs><clipPath id="b"><use xlink:href="#a" overflow="visible"/></clipPath><path d="M74.9 9.3L63.9.4c-1.2-.7-2.7-.4-3.4.8-.7 1.2-.4 2.7.8 3.4l11 8.9c1.2.7 2.7.4 3.4-.8.7-1.2.3-2.7-.8-3.4m-20.1 0L43.8.4c-1.2-.7-2.7-.4-3.4.8-.7 1.2-.4 2.7.8 3.4l11 8.9c1.2.7 2.7.4 3.4-.8.8-1.2.4-2.7-.8-3.4m-20 0L23.8.4c-1.2-.7-2.7-.4-3.4.8-.7 1.2-.4 2.7.8 3.4l11 8.9c1.2.7 2.7.4 3.4-.8.8-1.2.4-2.7-.8-3.4m-20 0L3.8.4C2.7-.4 1.1 0 .4 1.2c-.8 1.1-.4 2.7.8 3.4l11 8.9c1.2.7 2.7.4 3.4-.8.8-1.2.4-2.7-.8-3.4m60.1 20l-11-8.9c-1.2-.7-2.7-.4-3.4.8-.7 1.2-.4 2.7.8 3.4l11 8.9c1.2.7 2.7.4 3.4-.8.7-1.2.3-2.7-.8-3.4m-20.1 0l-11-8.9c-1.2-.7-2.7-.4-3.4.8-.7 1.2-.4 2.7.8 3.4l11 8.9c1.2.7 2.7.4 3.4-.8.8-1.2.4-2.7-.8-3.4m-20 0l-11-8.9c-1.2-.7-2.7-.4-3.4.8-.7 1.2-.4 2.7.8 3.4l11 8.9c1.2.7 2.7.4 3.4-.8.8-1.2.4-2.7-.8-3.4m-20 0l-11-8.9c-1.2-.7-2.7-.4-3.4.8-.7 1.2-.4 2.7.8 3.4l11 8.9c1.2.7 2.7.4 3.4-.8.8-1.2.4-2.7-.8-3.4m60.1 20l-11-8.9c-1.2-.7-2.7-.4-3.4.8-.7 1.2-.4 2.7.8 3.4l11 8.9c1.2.7 2.7.4 3.4-.8.7-1.2.3-2.7-.8-3.4m-20.1 0l-11-8.9c-1.2-.7-2.7-.4-3.4.8-.7 1.2-.4 2.7.8 3.4l11 8.9c1.2.7 2.7.4 3.4-.8.8-1.2.4-2.7-.8-3.4m-20 0l-11-8.9c-1.2-.7-2.7-.4-3.4.8-.7 1.2-.4 2.7.8 3.4l11 8.9c1.2.7 2.7.4 3.4-.8.8-1.2.4-2.7-.8-3.4m-20 0l-11-8.9c-1.2-.7-2.7-.4-3.4.8-.7 1.2-.4 2.7.8 3.4l11 8.9c1.2.7 2.7.4 3.4-.8.8-1.2.4-2.7-.8-3.4" clip-path="url(#b)" fill="#0fbc8d"/></svg>