<?xml version="1.0" encoding="utf-8"?><!DOCTYPE svg PUBLIC "-//W3C//DTD SVG 1.1//EN" "http://www.w3.org/Graphics/SVG/1.1/DTD/svg11.dtd"><svg xmlns="http://www.w3.org/2000/svg" xmlns:xlink="http://www.w3.org/1999/xlink"><symbol id="arrow" xml:space="preserve" viewBox="0 0 50 47.6" xmlns="http://www.w3.org/2000/svg"><style>.aast0,.aast1{clip-path:url(#aaSVGID_2_);fill:#111}.aast1{fill:#00c569}</style><defs><path id="aaSVGID_1_" d="M0 0h50v47.6H0z"/></defs><clipPath id="aaSVGID_2_"><use xlink:href="#aaSVGID_1_" overflow="visible"/></clipPath><path class="aast0" d="M49.7 21.5c0 .1.1.2.1.2 0 .1.1.2.1.3 0 .1 0 .1.1.2.1.3.1.7 0 1 0 .1 0 .1-.1.2 0 .1 0 .2-.1.3 0 .1-.1.2-.1.2 0 .1-.1.1-.1.2-.2.3-.4.5-.7.7-.1 0-.1.1-.2.1s-.2.1-.2.1-.2.1-.3.1c-.1 0-.1 0-.2.1H2.5c-1.4 0-2.5-1.1-2.5-2.5s1.1-2.5 2.5-2.5h39l-16-15.9c-1-1-1-2.6 0-3.5 1-1 2.6-1 3.5 0L49.2 21c.1.1.2.2.3.4.1 0 .1 0 .2.1"/><path class="aast1" d="M25.4 43.3l15.4-15.4c1-1 2.6-1 3.5 0 1 1 1 2.6 0 3.5L28.9 46.8c-1 1-2.6 1-3.5 0-1-1-1-2.5 0-3.5"/></symbol><symbol id="basket" xml:space="preserve" viewBox="0 0 90 66" xmlns="http://www.w3.org/2000/svg"><style>.abst0{clip-path:url(#abSVGID_2_);fill:#fff}</style><defs><path id="abSVGID_1_" d="M0 0h90v66H0z"/></defs><clipPath id="abSVGID_2_"><use xlink:href="#abSVGID_1_" overflow="visible"/></clipPath><path class="abst0" d="M39.1 0C38 0 37 .6 36.4 1.5L23.7 23h-21c-1.7.2-3 2.1-2.6 3.8l8 27.9v.1c.8 3.3 2.3 6.1 4.5 8.1S17.8 66 21 66h48c3.2 0 6.2-1.1 8.4-3.1s3.6-4.8 4.5-8.1v-.1l8-27.9c.5-1.8-1-3.8-2.9-3.8h-8c-1.6 0-3 1.4-3 3s1.5 3 3 3h4l-6.9 24.1v.1c-.6 2.5-1.6 4.2-2.8 5.2C72.2 59.5 71 60 69 60H21c-2 0-3.2-.5-4.3-1.5-1.1-1-2.1-2.7-2.8-5.2v-.1L6.9 29H69c1.6 0 3-1.4 3-3s-1.5-3-3-3h-2.7L53.6 1.5C53 .5 51.7-.1 50.5 0c-1 .1-1.9.8-2.3 1.7-.4.9-.4 2 .2 2.8l11 18.5H30.7L41.6 4.6c.5-.9.6-2.1.1-3-.6-1-1.6-1.6-2.6-1.6M16.7 33c-1.6.1-2.9 1.6-2.8 3.2.1 1.6 1.6 2.9 3.2 2.8h15c1.6 0 3-1.4 3-3s-1.5-3-3-3H16.7zm0 9c-1.6.1-2.9 1.6-2.8 3.2.1 1.6 1.6 2.9 3.2 2.8h15c1.6 0 3-1.4 3-3s-1.5-3-3-3H16.7z"/></symbol><symbol id="cart" xml:space="preserve" viewBox="0 0 49.7 50" xmlns="http://www.w3.org/2000/svg"><style>.acst0,.acst1{clip-path:url(#acSVGID_2_);fill:#111}.acst1{fill:#00c569}</style><defs><path id="acSVGID_1_" d="M0 0h49.7v50H0z"/></defs><clipPath id="acSVGID_2_"><use xlink:href="#acSVGID_1_" overflow="visible"/></clipPath><path class="acst0" d="M43.3 9H26.7c-1.6 0-2.7 1.4-2.5 2.9.2 1.2 1.2 2.1 2.5 2.1h16.5c.6 0 .9.3 1.1.5.2.2.4.6.3 1.2l-3.8 18.2c-.1.7-.7 1.2-1.4 1.2H23.3c-.7 0-1.3-.5-1.4-1.2L16.4 2C16.2.8 15.2 0 14 0H2.5C.9 0-.3 1.5.1 3.1.4 4.3 1.5 5 2.6 5h9.3L17 34.7c.5 3.1 3.2 5.3 6.3 5.3h16.2c3.1 0 5.8-2.2 6.3-5.3l3.8-18.2c.7-3.9-2.4-7.5-6.3-7.5"/><path class="acst0" d="M36.4 23c1.4 0 2.5-1.1 2.5-2.5S37.8 18 36.4 18h-8c-1.4 0-2.5 1.1-2.5 2.5S27 23 28.4 23h8z"/><path class="acst1" d="M24.4 43c-1.9 0-3.5 1.6-3.5 3.5s1.6 3.5 3.5 3.5 3.5-1.6 3.5-3.5-1.6-3.5-3.5-3.5M38.4 43c-1.9 0-3.5 1.6-3.5 3.5s1.6 3.5 3.5 3.5 3.5-1.6 3.5-3.5-1.6-3.5-3.5-3.5M36.9 28.5c0-1.4-1.1-2.5-2.5-2.5h-5c-1.4 0-2.5 1.1-2.5 2.5S28 31 29.4 31h5c1.4 0 2.5-1.1 2.5-2.5"/></symbol><symbol id="delivery" xml:space="preserve" viewBox="0 0 96 96.1" xmlns="http://www.w3.org/2000/svg"><style>.adst0{clip-path:url(#adSVGID_2_)}</style><defs><path id="adSVGID_1_" d="M0 0h96v96.1H0z"/></defs><clipPath id="adSVGID_2_"><use xlink:href="#adSVGID_1_" overflow="visible"/></clipPath><path class="adst0" d="M92 76H30.6c-2-4.2-6-7.1-10.6-7.8V16C20 7.2 12.8 0 4 0 1.8 0 0 1.8 0 4s1.8 4 4 4c4.4 0 8 3.6 8 8v53.4C5 72.7 2 81 5.3 88s11.6 10 18.6 6.7c4.3-2 7.3-6.1 7.9-10.8H92c2.2 0 4-1.8 4-4 0-2.1-1.8-3.9-4-3.9M18 88c-3.3 0-6-2.7-6-6s2.7-6 6-6 6 2.7 6 6-2.7 6-6 6"/><path class="adst0" d="M40 68h40c6.6 0 12-5.4 12-12V16c0-6.6-5.4-12-12-12H40c-6.6 0-12 5.4-12 12v40c0 6.6 5.4 12 12 12m-4-52c0-2.2 1.8-4 4-4h16v12c0 2.2 1.8 4 4 4s4-1.8 4-4V12h16c2.2 0 4 1.8 4 4v40c0 2.2-1.8 4-4 4H40c-2.2 0-4-1.8-4-4V16z"/></symbol><symbol viewBox="0 0 60.734 60.733" id="facebook" xmlns="http://www.w3.org/2000/svg"><path d="M57.378.001H3.352A3.352 3.352 0 000 3.353v54.026a3.353 3.353 0 003.352 3.354h29.086V37.214h-7.914v-9.167h7.914v-6.76c0-7.843 4.789-12.116 11.787-12.116 3.355 0 6.232.251 7.071.36v8.198l-4.854.002c-3.805 0-4.539 1.809-4.539 4.462v5.851h9.078l-1.187 9.166h-7.892v23.52h15.475a3.355 3.355 0 003.355-3.351V3.351a3.352 3.352 0 00-3.354-3.35z"/></symbol><symbol viewBox="0 0 310 310" id="in" xmlns="http://www.w3.org/2000/svg"><path d="M72.16 99.73H9.927a5 5 0 00-5 5v199.928a5 5 0 005 5H72.16a5 5 0 005-5V104.73a5 5 0 00-5-5zM41.066.341C18.422.341 0 18.743 0 41.362 0 63.991 18.422 82.4 41.066 82.4c22.626 0 41.033-18.41 41.033-41.038C82.1 18.743 63.692.341 41.066.341zM230.454 94.761c-24.995 0-43.472 10.745-54.679 22.954V104.73a5 5 0 00-5-5h-59.599a5 5 0 00-5 5v199.928a5 5 0 005 5h62.097a5 5 0 005-5V205.74c0-33.333 9.054-46.319 32.29-46.319 25.306 0 27.317 20.818 27.317 48.034v97.204a5 5 0 005 5H305a5 5 0 005-5V194.995c0-49.565-9.451-100.234-79.546-100.234z"/></symbol><symbol viewBox="0 0 58 58" id="info" xmlns="http://www.w3.org/2000/svg"><path d="M26.64.094C12.722 1.194 1.399 12.368.125 26.271c-.537 5.864.678 11.405 3.176 16.168a6.928 6.928 0 01.35 5.603L0 58l10.55-3.517c1.747-.582 3.664-.472 5.304.365 4.77 2.434 10.299 3.589 16.144 3.001 13.793-1.389 24.814-12.666 25.908-26.485C59.322 13.488 44.515-1.32 26.64.094z" data-original="#EBBA16" data-old_color="#EBBA16" fill="#fd6004"/><circle cx="29" cy="29" r="24" data-original="#FFFFFF" class="agactive-path" fill="#fff"/><circle cx="29" cy="15" r="3" data-original="#E83132" data-old_color="#E83132" fill="#fd6004"/><path d="M29 46a3 3 0 01-3-3V26a3 3 0 116 0v17a3 3 0 01-3 3z" data-original="#E83132" data-old_color="#E83132" fill="#fd6004"/></symbol><symbol viewBox="0 0 20 20" id="instagram" xmlns="http://www.w3.org/2000/svg"><path d="M10 0C7.284 0 6.944.012 5.877.06 4.813.11 4.086.278 3.45.525a4.901 4.901 0 00-1.772 1.153A4.902 4.902 0 00.525 3.45C.278 4.086.109 4.813.06 5.877.011 6.944 0 7.284 0 10s.011 3.056.06 4.123c.049 1.064.218 1.791.465 2.427a4.902 4.902 0 001.153 1.772 4.903 4.903 0 001.772 1.153c.636.247 1.363.416 2.427.465 1.067.048 1.407.06 4.123.06s3.056-.012 4.123-.06c1.064-.049 1.791-.218 2.427-.465a4.903 4.903 0 001.772-1.153 4.902 4.902 0 001.153-1.772c.247-.636.416-1.363.465-2.427.048-1.067.06-1.407.06-4.123s-.012-3.056-.06-4.123c-.049-1.064-.218-1.791-.465-2.427a4.902 4.902 0 00-1.153-1.772A4.902 4.902 0 0016.55.525C15.914.278 15.187.109 14.123.06 13.056.012 12.716 0 10 0zm0 1.802c2.67 0 2.986.01 4.04.058.976.045 1.505.207 1.858.344.466.182.8.399 1.15.748.35.35.566.684.748 1.15.136.353.3.882.344 1.857.048 1.055.058 1.37.058 4.041 0 2.67-.01 2.986-.058 4.04-.045.976-.208 1.505-.344 1.858a3.1 3.1 0 01-.748 1.15c-.35.35-.684.566-1.15.748-.353.136-.882.3-1.857.344-1.054.048-1.37.058-4.041.058-2.67 0-2.987-.01-4.04-.058-.976-.045-1.505-.208-1.858-.344a3.098 3.098 0 01-1.15-.748 3.099 3.099 0 01-.748-1.15c-.137-.353-.3-.882-.344-1.857-.048-1.055-.058-1.37-.058-4.041 0-2.67.01-2.986.058-4.04.045-.976.207-1.505.344-1.858.182-.466.399-.8.748-1.15.35-.35.684-.566 1.15-.748.353-.137.882-.3 1.857-.344 1.055-.048 1.37-.058 4.041-.058zm6.538 2.86a1.2 1.2 0 11-2.4 0 1.2 1.2 0 012.4 0zM10 4.865a5.135 5.135 0 100 10.27 5.135 5.135 0 000-10.27zm0 8.468a3.333 3.333 0 110-6.666 3.333 3.333 0 010 6.666z"/></symbol><symbol id="logo" xml:space="preserve" viewBox="0 0 417.7 98.9" xmlns="http://www.w3.org/2000/svg"><style>.aist0,.aist1{clip-path:url(#aiSVGID_26_);fill:#039}.aist1{clip-path:url(#aiSVGID_4_)}.aist2{clip-path:url(#aiSVGID_6_);fill:#666}.aist3,.aist4{clip-path:url(#aiSVGID_16_);fill:#039}.aist4{clip-path:url(#aiSVGID_18_)}.aist5,.aist6{clip-path:url(#aiSVGID_8_);fill:#039}.aist6{clip-path:url(#aiSVGID_20_)}.aist7,.aist8{clip-path:url(#aiSVGID_10_);fill:#039}.aist8{clip-path:url(#aiSVGID_22_)}.aist10,.aist9{clip-path:url(#aiSVGID_12_);fill:#039}.aist10{clip-path:url(#aiSVGID_24_)}.aist11,.aist12{clip-path:url(#aiSVGID_2_);fill:#039}.aist12{clip-path:url(#aiSVGID_14_)}</style><defs><path id="aiSVGID_1_" d="M0 0h417.7v98.9H0z"/></defs><clipPath id="aiSVGID_2_"><use xlink:href="#aiSVGID_1_" overflow="visible"/></clipPath><path class="aist11" d="M118.4 86.9c8 0 13.7-3.9 13.7-11.3 0-7.8-6.6-9.4-11.6-10.7-3.2-.8-5.8-1.4-5.8-3.4 0-1.6 1.6-2.3 3.3-2.3 2 0 3.6 1 3.6 3.2h9.4c0-6.9-4.7-11.1-12.9-11.1-8.1 0-13.1 3.9-13.1 10.6 0 7.7 6.3 9.2 11.3 10.5 3.3.8 5.9 1.4 5.9 3.5 0 1.9-1.9 2.9-3.9 2.9-2.1 0-4-1.2-4-3.6h-9.7c0 7.3 5.4 11.7 13.8 11.7m28-8.9v-5.1h11.2v-7.7h-11.2v-5h12.5V52H137v34.1h22.3V78h-12.9zM180 67.9v5.9h8.5c-1.1 2.6-4.2 4.4-7.8 4.4-5.2 0-8.6-3.7-8.6-9.1 0-5.4 3.5-9.1 8.6-9.1 3.5 0 6.6 1.9 7.8 4.7h9.9c-1.5-7.9-8.8-13.5-17.8-13.5-10.6 0-18.2 7.6-18.2 17.9 0 10.4 7.8 17.9 18.2 17.9 10.7 0 18-7.9 18-19.1H180zm38.1 19c8.7 0 14.9-5.6 14.9-14V52h-9.6v20.7c0 3.3-2.2 5.5-5.3 5.5-3.2 0-5.3-2.2-5.3-5.5V52h-9.6v20.9c0 8.4 6.2 14 14.9 14m39.7-.8h10.5l-6.8-12.4c3.4-2 5.4-5.4 5.4-9.6 0-7.1-5.3-12.1-12.7-12.1h-14.8v34.1h9.4V75.7h3.4l5.6 10.4zm-9-25.8h4.3c2.6 0 4.1 1.6 4.1 3.7s-1.5 3.7-4.1 3.7h-4.3v-7.4zM295 86.1h10.4L291.7 52h-9.2L269 86.1h10.1l1.9-5.6h12.1l1.9 5.6zm-4.2-12.9h-7.5l3.8-10.6 3.7 10.6zM330.1 52v17.9L317 52h-8.3v34.1h9.1V67.6l13.6 18.5h7.8V52h-9.1zm32.2 35c9.1 0 16.1-6.1 17.4-15.1h-9.6c-1 3.8-4 6.3-7.8 6.3-4.8 0-8.4-3.8-8.4-9.1s3.6-9.2 8.4-9.2c3.6 0 6.6 2.3 7.8 5.8h9.6c-1.4-8.6-8.3-14.6-17.3-14.6-10.4 0-18.2 7.7-18.2 17.9-.1 10.3 7.7 18 18.1 18m43.3-.9H416L402.3 52H393l-13.5 34.1h10.1l1.9-5.6h12.1l2 5.6zm-4.2-12.9h-7.5l3.8-10.6 3.7 10.6z"/><defs><path id="aiSVGID_3_" d="M0 0h417.7v98.9H0z"/></defs><clipPath id="aiSVGID_4_"><use xlink:href="#aiSVGID_3_" overflow="visible"/></clipPath><path class="aist1" d="M365.5 86.5c-.9.1-1.9.2-2.9.2s-1.9-.1-2.8-.2h-1l-.9.3-.6 2.4c1.1-.3 2.1-.5 3.1-.5s1.8.2 2.3.6c.5.4.7.9.7 1.4 0 .6-.3 1.1-.8 1.5-.7.5-1.7.8-3.2.8-1.4 0-2.9-.1-4.5-.3v2.8c1 .3 2.6.4 4.6.4 2.9 0 5.1-.6 6.6-1.8 1.1-.9 1.7-2 1.7-3.4 0-1.2-.5-2.3-1.5-3.2-.5-.4-1.1-.7-1.8-.9h1v-.1z"/><defs><path id="aiSVGID_5_" d="M0 0h417.7v98.9H0z"/></defs><clipPath id="aiSVGID_6_"><use xlink:href="#aiSVGID_5_" overflow="visible"/></clipPath><path class="aist2" d="M42.4 98.9L0 79.8V13.6l1.3-.8c26.5-17 56.2-17 83.7 0l1.3.8v22.6h-5.6V16.7C55.9 2 29.4 2 5.6 16.7v59.5l36.8 16.5 38.5-16.9V50.2h5.6v29.3L42.4 98.9zm-1.1-27.8c-7.5 0-15-2.1-21.1-7.1l-1-.8V50.3h5.6v10.1c10.6 7.9 26 5.5 36.7-.3v-4.8l-42-17.6V25.5l1.7-.7c16.3-7.1 29.1-7.2 44.1-.4l1.6.7L67 36h-5.6l-.1-7.3c-12.3-5.2-22.7-5.1-36.2.4V34l42 17.6v11.8l-1.4.8c-6.8 4.1-15.7 6.9-24.4 6.9z"/><defs><path id="aiSVGID_7_" d="M0 0h417.7v98.9H0z"/></defs><clipPath id="aiSVGID_8_"><use xlink:href="#aiSVGID_7_" overflow="visible"/></clipPath><path class="aist5" d="M122.2 47.4c-10.4 0-17.9-7.5-17.9-18s7.5-18.1 17.9-18.1c8.1 0 14.6 4.8 16.6 12.4h-4.5c-1.9-5.1-6.4-8.1-12.1-8.1-7.8 0-13.5 5.7-13.5 13.8 0 8.1 5.6 13.7 13.5 13.7 5.9 0 10.5-3.2 12.3-8.6h4.5c-2.1 7.9-8.6 12.9-16.8 12.9z"/><defs><path id="aiSVGID_9_" d="M0 0h417.7v98.9H0z"/></defs><clipPath id="aiSVGID_10_"><use xlink:href="#aiSVGID_9_" overflow="visible"/></clipPath><path class="aist7" d="M138.2 29.3c0-10.3 7.7-18.1 18.3-18.1s18.3 7.8 18.3 18.1-7.7 18.1-18.3 18.1-18.3-7.7-18.3-18.1m32.1 0c0-7.9-5.9-13.8-13.8-13.8s-13.8 6-13.8 13.8c0 7.8 5.9 13.8 13.8 13.8s13.8-5.9 13.8-13.8"/><g><defs><path id="aiSVGID_11_" d="M0 0h417.7v98.9H0z"/></defs><clipPath id="aiSVGID_12_"><use xlink:href="#aiSVGID_11_" overflow="visible"/></clipPath><path class="aist9" d="M213.2 46.8l-4.5-27.3L196.6 46h-1.1l-12.1-26.5-4.6 27.3h-4.5l5.9-35h4.2L196 37.5l11.6-25.7h4.3l5.8 35z"/></g><g><defs><path id="aiSVGID_13_" d="M0 0h417.7v98.9H0z"/></defs><clipPath id="aiSVGID_14_"><use xlink:href="#aiSVGID_13_" overflow="visible"/></clipPath><path class="aist12" d="M240.3 42.6v4.2h-20.4v-35h19.8V16h-15.4v10.8h14.1v4.1h-14.1v11.8l16-.1zm-9.4-34.7h-3.3l3.6-7.1h4.5l-4.8 7.1z"/></g><g><defs><path id="aiSVGID_15_" d="M0 0h417.7v98.9H0z"/></defs><clipPath id="aiSVGID_16_"><use xlink:href="#aiSVGID_15_" overflow="visible"/></clipPath><path class="aist3" d="M255.1 33.1h-8v13.7h-4.4v-35H256c6.5 0 11.4 4.5 11.4 10.7 0 4.9-3.1 8.8-7.7 10.1l8.4 14.2h-4.9l-8.1-13.7zm-8-4.1h8.7c4.3 0 7.1-2.7 7.1-6.5 0-3.7-2.9-6.5-7.1-6.5h-8.7v13z"/></g><g><defs><path id="aiSVGID_17_" d="M0 0h417.7v98.9H0z"/></defs><clipPath id="aiSVGID_18_"><use xlink:href="#aiSVGID_17_" overflow="visible"/></clipPath><path class="aist4" d="M285.6 47.4c-10.4 0-17.9-7.5-17.9-18s7.5-18.1 17.9-18.1c8.1 0 14.6 4.8 16.6 12.4h-4.5c-1.9-5.1-6.4-8.1-12.1-8.1-7.8 0-13.5 5.7-13.5 13.8 0 8.1 5.6 13.7 13.5 13.7 5.9 0 10.5-3.2 12.3-8.6h4.5c-2 7.9-8.5 12.9-16.8 12.9z"/></g><g><defs><path id="aiSVGID_19_" d="M0 0h417.7v98.9H0z"/></defs><clipPath id="aiSVGID_20_"><use xlink:href="#aiSVGID_19_" overflow="visible"/></clipPath><path class="aist6" d="M304 11.8h4.4v35H304z"/></g><g><defs><path id="aiSVGID_21_" d="M0 0h417.7v98.9H0z"/></defs><clipPath id="aiSVGID_22_"><use xlink:href="#aiSVGID_21_" overflow="visible"/></clipPath><path class="aist8" d="M310.7 29.3c0-10.3 7.7-18.1 18.3-18.1s18.3 7.8 18.3 18.1-7.7 18.1-18.3 18.1-18.3-7.7-18.3-18.1m32.2 0c0-7.9-5.9-13.8-13.8-13.8-8 0-13.8 6-13.8 13.8 0 7.8 5.9 13.8 13.8 13.8s13.8-5.9 13.8-13.8"/></g><g><defs><path id="aiSVGID_23_" d="M0 0h417.7v98.9H0z"/></defs><clipPath id="aiSVGID_24_"><use xlink:href="#aiSVGID_23_" overflow="visible"/></clipPath><path class="aist10" d="M387.4 29.3c0 10.1-7.5 17.5-17.8 17.5h-11.7v-35h11.7c10.3 0 17.8 7.4 17.8 17.5m-4.5 0c0-7.7-5.6-13.4-13.4-13.4h-7.1v26.8h7.1c7.8 0 13.4-5.6 13.4-13.4"/></g><g><defs><path id="aiSVGID_25_" d="M0 0h417.7v98.9H0z"/></defs><clipPath id="aiSVGID_26_"><use xlink:href="#aiSVGID_25_" overflow="visible"/></clipPath><path class="aist0" d="M409.4 38.5h-16.8l-3.4 8.4h-4.7l14.3-35h4.1l14.7 35h-4.8l-3.4-8.4zm-15.2-4.1h13.5L401 17.9l-6.8 16.5z"/></g></symbol><symbol viewBox="0 0 512.005 512" id="logout" xmlns="http://www.w3.org/2000/svg"><path d="M320 277.336c-11.797 0-21.332 9.559-21.332 21.332v85.336c0 11.754-9.559 21.332-21.336 21.332h-64v-320c0-18.219-11.605-34.496-29.055-40.555l-6.316-2.113h99.371c11.777 0 21.336 9.578 21.336 21.336v64c0 11.773 9.535 21.332 21.332 21.332s21.332-9.559 21.332-21.332v-64c0-35.285-28.715-64-64-64H48c-.812 0-1.492.363-2.281.469-1.028-.086-2.008-.47-3.051-.47C19.137.004 0 19.138 0 42.669v384c0 18.219 11.605 34.496 29.055 40.555L157.44 510.02c4.352 1.343 8.68 1.984 13.227 1.984 23.531 0 42.664-19.137 42.664-42.668v-21.332h64c35.285 0 64-28.715 64-64v-85.336c0-11.773-9.535-21.332-21.332-21.332zm0 0"/><path d="M505.75 198.254l-85.336-85.332a21.33 21.33 0 00-23.25-4.633C389.207 111.598 384 119.383 384 128.004v64h-85.332c-11.777 0-21.336 9.555-21.336 21.332 0 11.777 9.559 21.332 21.336 21.332H384v64c0 8.621 5.207 16.406 13.164 19.715a21.335 21.335 0 0023.25-4.63l85.336-85.335c8.34-8.34 8.34-21.824 0-30.164zm0 0"/></symbol><symbol id="more" xml:space="preserve" viewBox="0 0 95 95" xmlns="http://www.w3.org/2000/svg"><style>.akst0{clip-path:url(#akSVGID_2_)}</style><defs><path id="akSVGID_1_" d="M0 0h95v95H0z"/></defs><clipPath id="akSVGID_2_"><use xlink:href="#akSVGID_1_" overflow="visible"/></clipPath><path class="akst0" d="M87.5 40H55V7.5C55 3.4 51.7 0 47.5 0 43.4 0 40 3.3 40 7.5V40H7.5C3.4 40 0 43.3 0 47.5c0 2.1.8 3.9 2.2 5.3C3.6 54.2 5.4 55 7.5 55H40v32.5c0 2.1.8 3.9 2.2 5.3 1.4 1.4 3.2 2.2 5.3 2.2 4.1 0 7.5-3.3 7.5-7.5V55h32.5c4.1 0 7.5-3.3 7.5-7.5 0-4.1-3.3-7.5-7.5-7.5"/></symbol><symbol id="news" xml:space="preserve" viewBox="0 0 50 36" xmlns="http://www.w3.org/2000/svg"><style>.alst0,.alst1{clip-path:url(#alSVGID_2_);fill:#111}.alst1{fill:#00c569}</style><defs><path id="alSVGID_1_" d="M0 0h50v36H0z"/></defs><clipPath id="alSVGID_2_"><use xlink:href="#alSVGID_1_" overflow="visible"/></clipPath><path class="alst1" d="M25.8 23.6l11-8.9c1.2-.7 1.5-2.3.8-3.4-.7-1.2-2.3-1.5-3.4-.8l-11 8.9c-1.2.7-1.5 2.3-.8 3.4.7 1.2 2.3 1.6 3.4.8"/><path class="alst0" d="M25.8 19.4l-11-8.9c-1.2-.7-2.7-.4-3.4.8-.7 1.2-.4 2.7.8 3.4l11 8.9c1.2.7 2.7.4 3.4-.8s.4-2.7-.8-3.4"/><path class="alst0" d="M41.8 0H8.2C3.7 0 0 3.7 0 8.2v19.6C0 32.3 3.7 36 8.2 36h33.6c4.5 0 8.2-3.7 8.2-8.2V8.2C50 3.7 46.3 0 41.8 0M45 27.8c0 1.8-1.4 3.2-3.2 3.2H8.2C6.4 31 5 29.6 5 27.8V8.2C5 6.4 6.4 5 8.2 5h33.6C43.6 5 45 6.4 45 8.2v19.6z"/></symbol><symbol id="news1" xml:space="preserve" viewBox="0 0 76 53.9" xmlns="http://www.w3.org/2000/svg"><style>.amst0{clip-path:url(#amSVGID_2_);fill:#0fbc8d}</style><defs><path id="amSVGID_1_" d="M0 0h76v53.9H0z"/></defs><clipPath id="amSVGID_2_"><use xlink:href="#amSVGID_1_" overflow="visible"/></clipPath><path class="amst0" d="M74.9 9.3L63.9.4c-1.2-.7-2.7-.4-3.4.8-.7 1.2-.4 2.7.8 3.4l11 8.9c1.2.7 2.7.4 3.4-.8.7-1.2.3-2.7-.8-3.4M54.8 9.3L43.8.4c-1.2-.7-2.7-.4-3.4.8-.7 1.2-.4 2.7.8 3.4l11 8.9c1.2.7 2.7.4 3.4-.8.8-1.2.4-2.7-.8-3.4M34.8 9.3L23.8.4c-1.2-.7-2.7-.4-3.4.8-.7 1.2-.4 2.7.8 3.4l11 8.9c1.2.7 2.7.4 3.4-.8.8-1.2.4-2.7-.8-3.4M14.8 9.3L3.8.4C2.7-.4 1.1 0 .4 1.2c-.8 1.1-.4 2.7.8 3.4l11 8.9c1.2.7 2.7.4 3.4-.8.8-1.2.4-2.7-.8-3.4M74.9 29.3l-11-8.9c-1.2-.7-2.7-.4-3.4.8-.7 1.2-.4 2.7.8 3.4l11 8.9c1.2.7 2.7.4 3.4-.8.7-1.2.3-2.7-.8-3.4M54.8 29.3l-11-8.9c-1.2-.7-2.7-.4-3.4.8-.7 1.2-.4 2.7.8 3.4l11 8.9c1.2.7 2.7.4 3.4-.8.8-1.2.4-2.7-.8-3.4M34.8 29.3l-11-8.9c-1.2-.7-2.7-.4-3.4.8-.7 1.2-.4 2.7.8 3.4l11 8.9c1.2.7 2.7.4 3.4-.8.8-1.2.4-2.7-.8-3.4M14.8 29.3l-11-8.9c-1.2-.7-2.7-.4-3.4.8-.7 1.2-.4 2.7.8 3.4l11 8.9c1.2.7 2.7.4 3.4-.8.8-1.2.4-2.7-.8-3.4M74.9 49.3l-11-8.9c-1.2-.7-2.7-.4-3.4.8-.7 1.2-.4 2.7.8 3.4l11 8.9c1.2.7 2.7.4 3.4-.8.7-1.2.3-2.7-.8-3.4M54.8 49.3l-11-8.9c-1.2-.7-2.7-.4-3.4.8-.7 1.2-.4 2.7.8 3.4l11 8.9c1.2.7 2.7.4 3.4-.8.8-1.2.4-2.7-.8-3.4M34.8 49.3l-11-8.9c-1.2-.7-2.7-.4-3.4.8-.7 1.2-.4 2.7.8 3.4l11 8.9c1.2.7 2.7.4 3.4-.8.8-1.2.4-2.7-.8-3.4M14.8 49.3l-11-8.9c-1.2-.7-2.7-.4-3.4.8-.7 1.2-.4 2.7.8 3.4l11 8.9c1.2.7 2.7.4 3.4-.8.8-1.2.4-2.7-.8-3.4"/></symbol><symbol id="news2" xml:space="preserve" viewBox="0 0 50 36" xmlns="http://www.w3.org/2000/svg"><style>.anst0,.anst1{clip-path:url(#anSVGID_2_);fill:#0fbc8d}.anst1{fill:#fff}</style><defs><path id="anSVGID_1_" d="M0 0h50v36H0z"/></defs><clipPath id="anSVGID_2_"><use xlink:href="#anSVGID_1_" overflow="visible"/></clipPath><path class="anst1" d="M25.8 23.6l11-8.9c1.2-.7 1.5-2.3.8-3.4-.7-1.2-2.3-1.5-3.4-.8l-11 8.9c-1.2.7-1.5 2.3-.8 3.4.7 1.2 2.3 1.6 3.4.8"/><path class="anst0" d="M25.8 19.4l-11-8.9c-1.2-.7-2.7-.4-3.4.8-.7 1.2-.4 2.7.8 3.4l11 8.9c1.2.7 2.7.4 3.4-.8s.4-2.7-.8-3.4"/><path class="anst1" d="M41.8 0H8.2C3.7 0 0 3.7 0 8.2v19.6C0 32.3 3.7 36 8.2 36h33.6c4.5 0 8.2-3.7 8.2-8.2V8.2C50 3.7 46.3 0 41.8 0M45 27.8c0 1.8-1.4 3.2-3.2 3.2H8.2C6.4 31 5 29.6 5 27.8V8.2C5 6.4 6.4 5 8.2 5h33.6C43.6 5 45 6.4 45 8.2v19.6z"/></symbol><symbol id="offer" xml:space="preserve" viewBox="0 0 84 72" xmlns="http://www.w3.org/2000/svg"><style>.aost0{clip-path:url(#aoSVGID_2_)}</style><defs><path id="aoSVGID_1_" d="M0 0h84v72H0z"/></defs><clipPath id="aoSVGID_2_"><use xlink:href="#aoSVGID_1_" overflow="visible"/></clipPath><path class="aost0" d="M0 18V9c0-5 4-9 9-9h9c1.7 0 3 1.3 3 3s-1.3 3-3 3H9C7.3 6 6 7.3 6 9v9c0 1.7-1.3 3-3 3s-3-1.3-3-3M84 9v9c0 1.7-1.3 3-3 3s-3-1.3-3-3V9c0-1.7-1.3-3-3-3h-9c-1.7 0-3-1.3-3-3s1.3-3 3-3h9c5 0 9 4 9 9M21 69c0 1.7-1.3 3-3 3H9c-5 0-9-4-9-9v-9c0-1.7 1.3-3 3-3s3 1.3 3 3v9c0 1.7 1.3 3 3 3h9c1.7 0 3 1.3 3 3M84 54v9c0 5-4 9-9 9h-9c-1.7 0-3-1.3-3-3s1.3-3 3-3h9c1.7 0 3-1.3 3-3v-9c0-1.7 1.3-3 3-3s3 1.3 3 3M63 39h-6v6c0 1.7-1.3 3-3 3s-3-1.3-3-3v-6h-6v6c0 1.7-1.3 3-3 3s-3-1.3-3-3v-6h-6v6c0 1.7-1.3 3-3 3s-3-1.3-3-3v-6h-6v12c0 1.7-1.3 3-3 3s-3-1.3-3-3V39H9c-1.7 0-3-1.3-3-3s1.3-3 3-3h6V21c0-1.7 1.3-3 3-3s3 1.3 3 3v12h6V21c0-1.7 1.3-3 3-3s3 1.3 3 3v12h6V21c0-1.7 1.3-3 3-3s3 1.3 3 3v12h6V21c0-1.7 1.3-3 3-3s3 1.3 3 3v12h6V21c0-1.7 1.3-3 3-3s3 1.3 3 3v12h6c1.7 0 3 1.3 3 3s-1.3 3-3 3h-6v12c0 1.7-1.3 3-3 3s-3-1.3-3-3V39z"/></symbol><symbol id="phone" xml:space="preserve" viewBox="0 0 33.8 50" xmlns="http://www.w3.org/2000/svg"><style>.apst0,.apst1{clip-path:url(#apSVGID_2_);fill:#111}.apst1{fill:#00c569}</style><defs><path id="apSVGID_1_" d="M0 0h33.8v50H0z"/></defs><clipPath id="apSVGID_2_"><use xlink:href="#apSVGID_1_" overflow="visible"/></clipPath><path class="apst0" d="M32.6 40l-9.2-10.5c-1-1.2-2.6-1.7-4.1-1.3l-.8.2c-.8.2-1.7-.2-2-1-.6-1.4-1-2.9-1.3-4.5-.1-.7.3-1.3 1-1.5 1.3-.3 2.3-1.2 2.8-2.4.3-.6.4-1.3.3-2l-1-12.3C18 1.5 14.8-.7 11.7.3L5 2.8C2.4 3.7.6 6 .3 8.7c-1.5 13.5 3.3 28.6 13.5 38.8 1.1 1.1 3 .7 3.7-.7 0 0 0-.1.1-.1.4-.9.2-1.9-.5-2.6C8.1 35.2 3.9 22 4.8 10.2 5 8.7 6 7.5 7.4 7L12 5.1c.8-.3 1.7.3 1.8 1.2l.7 9.3c.1.8-.5 1.5-1.2 1.7l-1.6.4c-1.2.3-2 1.5-1.8 2.7.8 5.3 2 8.9 4.9 13.3.6.9 1.8 1.3 2.9.9l2.1-.8c.6-.3 1.4-.1 1.8.5l6.7 7.9c.6.7.3 1.8-.6 2.1 0 0-2 .7-3.7 1.3-1.3.5-2 2-1.4 3.2.5 1.1 1.8 1.6 2.9 1.2l5-1.8c3.3-1.3 4.4-5.5 2.1-8.2"/><path class="apst1" d="M22.5 3.3c.1 1 .8 1.9 1.8 2.2 2 .5 3.5 2.3 3.7 4.5.2 2.2-1.1 4.1-3 5-1 .4-1.5 1.4-1.5 2.5.1 1.7 2 2.8 3.6 2.1 3.7-1.7 6.2-5.6 5.9-9.9S29.6 1.9 25.7.8c-1.7-.5-3.3.8-3.2 2.5"/></symbol><symbol id="pin" xml:space="preserve" viewBox="0 0 15.5 18.4" xmlns="http://www.w3.org/2000/svg"><style>.aqst0,.aqst1{clip-path:url(#aqSVGID_2_)}.aqst0{fill:#98c57d}.aqst1{enable-background:new}.aqst2{clip-path:url(#aqSVGID_4_);fill:#98c57d}</style><defs><path id="aqSVGID_1_" d="M0 0h15.5v18.4H0z"/></defs><clipPath id="aqSVGID_2_"><use xlink:href="#aqSVGID_1_" overflow="visible"/></clipPath><path class="aqst0" d="M7.8 18.4c-.2 0-.4-.1-.6-.2C6.9 18.1 0 13.4 0 7.7c0-2.1.8-4 2.3-5.5C3.7.8 5.7 0 7.8 0s4 .8 5.5 2.3c1.5 1.5 2.3 3.4 2.3 5.5 0 5.7-6.9 10.3-7.2 10.5-.3.1-.5.1-.6.1zM7.8 2c-1.5 0-3 .6-4.1 1.7C2.6 4.8 2 6.2 2 7.7c0 3.8 4.2 7.3 5.7 8.5 1.5-1.2 5.8-4.7 5.8-8.5 0-1.5-.6-3-1.7-4C10.7 2.6 9.3 2 7.8 2z"/><g class="aqst1"><defs><path id="aqSVGID_3_" d="M4.5 4.5H11V11H4.5z"/></defs><clipPath id="aqSVGID_4_"><use xlink:href="#aqSVGID_3_" overflow="visible"/></clipPath><path class="aqst2" d="M7.8 11C6 11 4.5 9.5 4.5 7.7c0-1.8 1.5-3.2 3.2-3.2S11 5.9 11 7.7C11 9.5 9.5 11 7.8 11zm0-4.5c-.7 0-1.3.5-1.3 1.2S7.1 9 7.8 9 9 8.4 9 7.7c0-.7-.6-1.2-1.2-1.2z"/></g></symbol><symbol id="pin-delivery" xml:space="preserve" viewBox="0 0 13 16" xmlns="http://www.w3.org/2000/svg"><style>.arst0{clip-path:url(#arSVGID_2_)}</style><defs><path id="arSVGID_1_" d="M0 0h13v16H0z"/></defs><clipPath id="arSVGID_2_"><use xlink:href="#arSVGID_1_" overflow="visible"/></clipPath><path class="arst0" d="M8.5 7C7.7 7 7 6.3 7 5.5c0-.3.2-.5.5-.5s.5.2.5.5.2.5.5.5.5-.2.5-.4L8.6 4H4.4L4 5.6c0 .2.2.4.5.4s.5-.2.5-.5.2-.5.5-.5.5.2.5.5C6 6.3 5.3 7 4.5 7S3 6.3 3 5.5v-.1l.5-2c.1-.2.3-.4.5-.4h5c.2 0 .4.2.5.4l.5 2v.1C10 6.3 9.3 7 8.5 7"/><path class="arst0" d="M6.5 7C5.7 7 5 6.3 5 5.5c0-.3.2-.5.5-.5s.5.2.5.5.2.5.5.5.5-.2.5-.5.2-.5.5-.5.5.2.5.5C8 6.3 7.3 7 6.5 7"/><path class="arst0" d="M8.5 10h-4c-.3 0-.5-.2-.5-.5v-3c0-.3.2-.5.5-.5s.5.2.5.5V9h3V6.5c0-.3.2-.5.5-.5s.5.2.5.5v3c0 .3-.2.5-.5.5"/><path class="arst0" d="M6.5 16c-.1 0-.2 0-.3-.1-.3-.2-6.2-4.7-6.2-9.4C0 2.9 2.9 0 6.5 0S13 2.9 13 6.5c0 4.7-5.9 9.2-6.2 9.4-.1.1-.2.1-.3.1m0-15C3.5 1 1 3.5 1 6.5c0 3.6 4.3 7.4 5.5 8.4 1.2-1 5.5-4.7 5.5-8.4C12 3.5 9.5 1 6.5 1"/></symbol><symbol viewBox="0 0 19 22" id="play" xmlns="http://www.w3.org/2000/svg"><path d="M0 0v21.467l18.767-10.733z" fill="#BA9E17" fill-rule="evenodd"/></symbol><symbol id="search" xml:space="preserve" viewBox="0 0 49.9 49.9" xmlns="http://www.w3.org/2000/svg"><style>.atst0,.atst1{clip-path:url(#atSVGID_2_);fill:#111}.atst1{fill:#00c569}</style><defs><path id="atSVGID_1_" d="M0 0h49.9v49.9H0z"/></defs><clipPath id="atSVGID_2_"><use xlink:href="#atSVGID_1_" overflow="visible"/></clipPath><path class="atst0" d="M49.1 45.6L38.6 35c-1.1-1.1-2.8-1.1-3.9 0-3.5 3.4-8.5 5.4-14 4.9-8.1-.8-14.7-7.3-15.6-15.4C3.9 13.2 13.5 3.7 24.8 5.2c7.2.9 13.2 6.4 14.8 13.5.6 2.9.5 5.7-.2 8.3-.3 1 .1 2.1 1 2.7 1.4 1 3.4.3 3.9-1.4.6-2.4.9-5 .7-7.7C44 9.9 35.6 1.3 25 .1 10.7-1.4-1.3 10.5.1 24.8c1.1 10.7 9.8 19.3 20.5 20.1 6 .5 11.6-1.4 15.9-4.9l9.1 9.1c1 1 2.6 1 3.5 0 1-.9 1-2.5 0-3.5"/><path class="atst1" d="M30 30c-.8-.8-2.1-.9-3-.3-1.3.8-2.8 1.3-4.5 1.3-1.5 0-2.9-.4-4.2-1.1-.9-.5-2.1-.4-2.9.3l-.2.1c-1.1 1.1-.9 3 .4 3.8 2 1.2 4.3 1.8 6.8 1.8 2.7 0 5.1-.8 7.2-2.1 1.3-.8 1.5-2.6.4-3.7V30z"/></symbol><symbol viewBox="0 -36 512.001 512" id="shopping-basket" xmlns="http://www.w3.org/2000/svg"><path d="M256 219.988c5.52 0 10-4.48 10-10s-4.48-10-10-10-10 4.48-10 10 4.48 10 10 10zm0 0" data-original="#000000" class="auactive-path" data-old_color="#000000" fill="#FFF"/><path d="M472 139.988h-59.137L321.895 14.836c-8.172-14.004-26.172-18.988-40.47-11.07-14.491 8.05-19.702 26.304-11.648 40.8.23.41.485.805.77 1.18l71.351 94.242H170.102l71.351-94.242c.281-.375.54-.77.77-1.18 8.035-14.46 2.882-32.73-11.66-40.808-14.266-7.903-32.266-2.922-40.454 11.07l-90.972 125.16H40c-22.055 0-40 17.946-40 40 0 17.395 11.29 32.54 27.191 37.899a9.956 9.956 0 006.118 2.101c.46 0 .894.028 1.347.09a9.971 9.971 0 018.496 8.117l34.02 187.164c2.598 14.27 15.012 24.63 29.52 24.63h298.617c14.507 0 26.921-10.36 29.52-24.634L468.847 228.2a9.976 9.976 0 018.515-8.12c.438-.063.871-.09 1.328-.09 2.32 0 4.454-.798 6.149-2.126 15.914-5.394 27.16-20.511 27.16-37.875 0-22.054-17.945-40-40-40zM286.988 34.328c-2.285-4.73-.511-10.492 4.137-13.07 4.84-2.684 10.941-.953 13.61 3.855.195.36.417.703.656 1.032l82.746 113.843H366.98zm-80.379-8.18c.239-.328.454-.668.653-1.02 2.676-4.812 8.781-6.546 13.601-3.878 4.657 2.586 6.438 8.34 4.149 13.078l-79.992 105.66h-21.157zM472 199.988H296c-5.523 0-10 4.477-10 10 0 5.524 4.477 9.899 10 9.899h154.398a30.359 30.359 0 00-1.226 4.633l-34.024 187.257a9.995 9.995 0 01-9.84 8.211H106.692a10 10 0 01-9.843-8.207l-34.02-187.164a30.19 30.19 0 00-1.226-4.629H216c5.523 0 10-4.476 10-10 0-5.523-4.477-10-10-10H40c-11.121 0-20-9.062-20-20 0-11.027 8.973-20 20-20h432c11.027 0 20 8.973 20 20 0 11.106-9.086 20-20 20zm0 0" data-original="#000000" class="auactive-path" data-old_color="#000000" fill="#FFF"/><path d="M256 249.988c-16.543 0-30 13.457-30 30v80c0 16.543 13.457 30 30 30s30-13.457 30-30v-80c0-16.574-13.426-30-30-30zm10 110c0 5.516-4.484 10-10 10s-10-4.484-10-10v-80c0-5.515 4.484-10 10-10 5.52 0 10 4.48 10 10zm0 0M356 389.988c16.543 0 30-13.457 30-30v-80c0-16.574-13.426-30-30-30-16.543 0-30 13.457-30 30v80c0 16.543 13.457 30 30 30zm-10-110c0-5.515 4.484-10 10-10 5.52 0 10 4.48 10 10v80c0 5.516-4.484 10-10 10s-10-4.484-10-10zm0 0M156 249.988c-16.543 0-30 13.457-30 30v80c0 16.543 13.457 30 30 30s30-13.457 30-30v-80c0-16.574-13.426-30-30-30zm10 110c0 5.516-4.484 10-10 10s-10-4.484-10-10v-80c0-5.515 4.484-10 10-10 5.52 0 10 4.477 10 10zm0 0" data-original="#000000" class="auactive-path" data-old_color="#000000" fill="#FFF"/></symbol><symbol id="simple-arrow" xml:space="preserve" viewBox="0 0 30 50" xmlns="http://www.w3.org/2000/svg"><style>.avst0{clip-path:url(#avSVGID_2_)}</style><defs><path id="avSVGID_1_" d="M0 0h30v50H0z"/></defs><clipPath id="avSVGID_2_"><use xlink:href="#avSVGID_1_" overflow="visible"/></clipPath><path class="avst0" d="M28.5 21.5l-20-20c-2-2-5.1-2-7.1 0s-2 5.1 0 7.1L17.9 25 1.5 41.5c-2 2-2 5.1 0 7.1 1 1 2.3 1.5 3.5 1.5 1.3 0 2.6-.5 3.5-1.5l20-20c2-2 2-5.2 0-7.1"/></symbol><symbol id="ticket" xml:space="preserve" viewBox="0 0 84 60" xmlns="http://www.w3.org/2000/svg"><style>.awst0{clip-path:url(#awSVGID_2_)}</style><defs><path id="awSVGID_1_" d="M0 0h84v60H0z"/></defs><clipPath id="awSVGID_2_"><use xlink:href="#awSVGID_1_" overflow="visible"/></clipPath><path class="awst0" d="M30 24v12c0 1.7-1.3 3-3 3s-3-1.3-3-3V24c0-1.7 1.3-3 3-3s3 1.3 3 3M36.9 44.1c-1.2-1.2-1.2-3.1 0-4.2l24-24c1.2-1.2 3.1-1.2 4.2 0 1.2 1.2 1.2 3.1 0 4.2l-24 24c-1.2 1.2-3 1.2-4.2 0M36 21c0-3.3 2.7-6 6-6s6 2.7 6 6-2.7 6-6 6-6-2.7-6-6M66 39c0 3.3-2.7 6-6 6s-6-2.7-6-6 2.7-6 6-6 6 2.7 6 6"/><path class="awst0" d="M78 0H6C2.7 0 0 2.7 0 6v13.7c0 1.1.6 2.1 1.5 2.6C4.3 23.9 6 26.8 6 30s-1.7 6.1-4.5 7.7c-.9.6-1.5 1.6-1.5 2.6V54c0 3.3 2.7 6 6 6h72c3.3 0 6-2.7 6-6V40.3c0-1.1-.6-2.1-1.5-2.6-2.8-1.6-4.5-4.5-4.5-7.7s1.7-6.1 4.5-7.7c.9-.5 1.5-1.5 1.5-2.6V6c0-3.3-2.7-6-6-6m0 18.1c-3.7 2.8-6 7.2-6 11.9s2.3 9.1 6 11.9V54H30v-6c0-1.7-1.3-3-3-3s-3 1.3-3 3v6H6V41.9c3.7-2.8 6-7.2 6-11.9s-2.3-9.1-6-11.9V6h18v6c0 1.7 1.3 3 3 3s3-1.3 3-3V6h48v12.1z"/></symbol><symbol id="trash" xml:space="preserve" viewBox="0 0 88 96" xmlns="http://www.w3.org/2000/svg"><style>.axst0{clip-path:url(#axSVGID_2_)}</style><defs><path id="axSVGID_1_" d="M0 0h88v96H0z"/></defs><clipPath id="axSVGID_2_"><use xlink:href="#axSVGID_1_" overflow="visible"/></clipPath><path class="axst0" d="M0 32c0 4.4 3.6 8 8 8v40c0 8.8 7.2 16 16 16h40c8.8 0 16-7.2 16-16V40c4.4 0 8-3.6 8-8v-8c0-4.4-3.6-8-8-8H64V8c0-4.4-3.6-8-8-8H32c-4.4 0-8 3.6-8 8v8H8c-4.4 0-8 3.6-8 8v8zm72 48c0 4.4-3.6 8-8 8H24c-4.4 0-8-3.6-8-8V40h56v40zM32 8h24v8H32V8zM8 24h72v8H8v-8z"/><path class="axst0" d="M28 80c2.2 0 4-1.8 4-4V52c0-2.2-1.8-4-4-4s-4 1.8-4 4v24c0 2.2 1.8 4 4 4M44 80c2.2 0 4-1.8 4-4V52c0-2.2-1.8-4-4-4s-4 1.8-4 4v24c0 2.2 1.8 4 4 4M60 80c2.2 0 4-1.8 4-4V52c0-2.2-1.8-4-4-4s-4 1.8-4 4v24c0 2.2 1.8 4 4 4"/></symbol><symbol viewBox="0 0 26 21" id="twitter" xmlns="http://www.w3.org/2000/svg"><path d="M22.932 3.314c1.154-.689 1.935-1.662 2.343-2.92a10.526 10.526 0 01-3.383 1.28C20.836.558 19.54 0 17.998 0c-1.473 0-2.73.517-3.77 1.55C13.19 2.584 12.67 3.834 12.67 5.3c0 .392.045.797.134 1.213a14.892 14.892 0 01-6.13-1.633A15.082 15.082 0 011.813.968a5.174 5.174 0 00-.725 2.673c0 .909.215 1.75.644 2.528a5.314 5.314 0 001.732 1.887 5.311 5.311 0 01-2.408-.673v.066c0 1.279.403 2.403 1.212 3.37a5.24 5.24 0 003.06 1.83c-.461.12-.93.18-1.401.18-.31 0-.645-.027-1.007-.082a5.193 5.193 0 001.88 2.618 5.223 5.223 0 003.102 1.057c-1.937 1.509-4.141 2.265-6.616 2.265-.473 0-.902-.022-1.286-.066C2.474 20.206 5.202 21 8.183 21c1.891 0 3.667-.298 5.327-.895 1.661-.596 3.081-1.394 4.258-2.396 1.177-1 2.191-2.15 3.045-3.452a15.354 15.354 0 001.904-4.077 14.96 14.96 0 00.611-4.947A11.121 11.121 0 0026 2.493a10.645 10.645 0 01-3.068.82"/></symbol><symbol id="user" xml:space="preserve" viewBox="0 0 47 50" xmlns="http://www.w3.org/2000/svg"><style>.azst0,.azst1{clip-path:url(#azSVGID_2_);fill:#111}.azst1{fill:#00c569}</style><defs><path id="azSVGID_1_" d="M0 0h47v50H0z"/></defs><clipPath id="azSVGID_2_"><use xlink:href="#azSVGID_1_" overflow="visible"/></clipPath><path class="azst0" d="M46.8 42.1L45.5 36c-.7-3.2-2.6-6-5.5-7.8l-7.7-4.8c1.2-1.5 1.9-3.4 2.1-5.5l.6-5.7C35.9 5.7 30.7 0 24.1 0h-1.2c-6.6 0-11.8 5.7-11.1 12.3l.6 5.7c.2 2 1 3.9 2.1 5.5l-7.7 4.8C4.1 30 2.1 32.8 1.4 36L.1 42.1C-.7 46.2 2.4 50 6.5 50h33.9c4.2 0 7.3-3.8 6.4-7.9M18.3 7c1.2-1.3 2.8-2 4.6-2h1.2c1.8 0 3.4.7 4.6 2 1.2 1.3 1.7 3 1.5 4.8l-.6 5.7c-.3 3.1-3 5.5-6.1 5.5-3.1 0-5.8-2.4-6.1-5.5l-.6-5.7c-.2-1.8.3-3.5 1.5-4.8m23.3 37.4c-.2.2-.5.6-1.2.6H6.5c-.6 0-1-.3-1.2-.6-.2-.2-.4-.7-.3-1.3L6.3 37c.4-1.9 1.6-3.5 3.2-4.5l9.1-5.7c1.5.7 3.1 1.1 4.8 1.1 1.7 0 3.4-.4 4.8-1.1l9.1 5.7c1.6 1 2.8 2.7 3.2 4.5l1.3 6.1c.3.7 0 1.1-.2 1.3"/><path class="azst1" d="M33 41h-5c-1.4 0-2.5-1.1-2.5-2.5S26.6 36 28 36h5c1.4 0 2.5 1.1 2.5 2.5S34.4 41 33 41"/></symbol><symbol id="warranty" xml:space="preserve" viewBox="0 0 12 16" xmlns="http://www.w3.org/2000/svg"><style>.bast0{clip-path:url(#baSVGID_2_)}</style><defs><path id="baSVGID_1_" d="M0 0h12v16H0z"/></defs><clipPath id="baSVGID_2_"><use xlink:href="#baSVGID_1_" overflow="visible"/></clipPath><path class="bast0" d="M6 16h-.2C-.1 14 0 11.4 0 7.9V2.5c0-.2.1-.4.3-.5l5.5-2h.3l5.5 2c.3.1.4.3.4.5v5.4c0 3.6.1 6.1-5.8 8.1H6M1 2.9v5c0 3.4 0 5.3 5 7.1 5.1-1.7 5-3.6 5-7.1v-5L6 1 1 2.9z"/><path class="bast0" d="M9 8H3c-.3 0-.5-.2-.5-.5S2.7 7 3 7h6c.3 0 .5.2.5.5S9.3 8 9 8"/><path class="bast0" d="M4 8c-.1 0-.1 0-.2-.1-.3-.1-.4-.4-.2-.6l1-2c.1-.3.4-.4.6-.2.2.1.3.4.2.7l-1 2c0 .1-.2.2-.4.2M8 8c-.2 0-.3-.1-.4-.3l-1-2c-.1-.2 0-.5.2-.7.2-.1.5 0 .7.3l1 2c.1.2 0 .5-.2.7H8"/><path class="bast0" d="M8 11H4c-.2 0-.5-.2-.5-.4l-.5-3c0-.3.2-.5.4-.6.3 0 .6.1.6.4l.4 2.6h3.2L8 7.4c.1-.3.3-.4.6-.4.3.1.4.3.4.6l-.5 3c0 .2-.2.4-.5.4"/></symbol><symbol viewBox="0 0 23 16" id="youtube" xmlns="http://www.w3.org/2000/svg"><path d="M8.484 11.52V3.957l7.27 3.793c-2.432 1.26-4.84 2.51-7.27 3.77m13.99-8.955C22.194 1.347 21.199.45 20.001.317 17.166 0 14.296-.001 11.438 0 8.581 0 5.71 0 2.874.317 1.677.451.682 1.347.404 2.565.003 4.296 0 6.187 0 7.97c0 1.783 0 3.675.399 5.406.279 1.216 1.274 2.114 2.471 2.248 2.836.316 5.706.318 8.564.316 2.858.002 5.728 0 8.563-.316 1.197-.134 2.192-1.032 2.473-2.248.398-1.731.4-3.623.4-5.406 0-1.783.003-3.674-.396-5.405" fill="#6D7D32" fill-rule="evenodd"/></symbol></svg>